<?xml version="1.0" encoding="UTF-8"?>
<svg width="16px" height="16px" viewBox="0 0 16 16" version="1.1" xmlns="http://www.w3.org/2000/svg" xmlns:xlink="http://www.w3.org/1999/xlink">
    <!-- Generator: Sketch 46.1 (44463) - http://www.bohemiancoding.com/sketch -->
    <title>Shape</title>
    <desc>Created with Sketch.</desc>
    <defs></defs>
    <g id="Page-1" stroke="none" stroke-width="1" fill="none" fill-rule="evenodd">
        <g id="风控SaaS-home选中一级菜单下拉出现二级菜单" transform="translate(-1222.000000, -24.000000)" fill-rule="nonzero" fill="#FFFFFF">
            <g id="top-copy">
                <g id="用户" transform="translate(1222.000000, 24.000000)">
                    <path d="M8.00151148,3.33793641 C6.69917679,3.33793641 5.64328508,4.39384412 5.64328508,5.69624279 C5.64328508,6.99857749 6.69909682,8.0544692 8.00151148,8.0544692 C9.3038142,8.0544692 10.3598019,6.9985615 10.3598019,5.69624279 C10.3598019,4.39384412 9.30381418,3.33793641 8.00151148,3.33793641 L8.00151148,3.33793641 Z M8.000008,0 C3.5817563,0 0,3.58175629 0,8.000008 C0,12.4183717 3.58175629,16.000016 8.000008,16.000016 C12.4182437,16.000016 16,12.4183557 16,8.000008 C16,3.58175629 12.4182597,0 8.000008,0 L8.000008,0 Z M12.1284717,12.771034 C11.956387,12.7515207 11.7730103,12.4762557 11.7730103,12.4762557 C11.4592466,10.4674767 9.89231514,8.93880411 8.00151147,8.93880411 C6.11078777,8.93880411 4.54385636,10.4674767 4.23007661,12.4762557 C4.23007661,12.4762557 4.15782953,12.7475061 3.87451928,12.771034 C3.21298751,12.8263909 3.29267202,12.4762557 3.29267202,12.4762557 C3.35354701,10.6322199 4.53945787,9.06349709 6.20862601,8.3973589 C5.33521534,7.81607144 4.75887018,6.82375778 4.75887018,5.69624278 C4.75887018,3.90527666 6.21064132,2.45350552 8.00151147,2.45350552 C9.79236562,2.45350552 11.2441208,3.90527666 11.2441208,5.69624278 C11.2441208,6.82375778 10.6678716,7.81607144 9.7944769,8.3973589 C11.4635331,9.06348108 12.6495399,10.6322199 12.7103189,12.4762557 C12.7103189,12.4762557 12.6693891,12.8326767 12.1284717,12.771034 L12.1284717,12.771034 Z" id="Shape"></path>
                </g>
            </g>
        </g>
    </g>
</svg>